<?xml version="1.0" encoding="iso-8859-1"?>
<!-- Generator: Adobe Illustrator 19.0.0, SVG Export Plug-In . SVG Version: 6.00 Build 0)  -->
<svg xmlns="http://www.w3.org/2000/svg" xmlns:xlink="http://www.w3.org/1999/xlink" version="1.1" id="Layer_1" x="0px" y="0px" viewBox="0 0 512 512" style="enable-background:new 0 0 512 512;" xml:space="preserve">
<g>
	<g>
		<path d="M171.947,104h-48.076c-4.56,0-7.872,3.14-7.872,7.464V148c0,2.208,1.792,4,4,4s4-1.792,4-4v-36h47.944    c0.02,0,0.04,0,0.056,0v36c0,2.208,1.792,4,4,4c2.208,0,4-1.792,4-4v-36.536C179.999,107.208,176.535,104,171.947,104z"/>
	</g>
</g>
<g>
	<g>
		<path d="M243.947,104h-48.076c-4.56,0-7.872,3.14-7.872,7.464V148c0,2.208,1.792,4,4,4s4-1.792,4-4v-36h47.944    c0.02,0,0.04,0,0.056,0v36c0,2.208,1.792,4,4,4s4-1.792,4-4v-36.536C251.999,107.208,248.535,104,243.947,104z"/>
	</g>
</g>
<g>
	<g>
		<path d="M316.131,104h-48.076c-4.592,0-8.056,3.208-8.056,7.464V148c0,2.208,1.792,4,4,4s4-1.792,4-4v-36c0.02,0,0.036,0,0.056,0    l47.944,0.032V148c0,2.208,1.792,4,4,4s4-1.792,4-4v-36.536C323.999,107.14,320.687,104,316.131,104z"/>
	</g>
</g>
<g>
	<g>
		<path d="M388.131,104h-48.076c-4.592,0-8.056,3.208-8.056,7.464V148c0,2.208,1.792,4,4,4s4-1.792,4-4v-36c0.02,0,0.036,0,0.056,0    l47.944,0.032V148c0,2.208,1.792,4,4,4s4-1.792,4-4v-36.536C395.999,107.14,392.687,104,388.131,104z"/>
	</g>
</g>
<g>
	<g>
		<path d="M171.999,0h-48c-4.412,0-8,3.588-8,8v80c0,4.412,3.588,8,8,8h48c4.412,0,8-3.588,8-8V8C179.999,3.588,176.411,0,171.999,0    z M123.999,88V8h48l0.004,80H123.999z"/>
	</g>
</g>
<g>
	<g>
		<path d="M243.999,0h-48c-4.412,0-8,3.588-8,8v80c0,4.412,3.588,8,8,8h48c4.412,0,8-3.588,8-8V8C251.999,3.588,248.411,0,243.999,0    z M195.999,88V8h48l0.004,80H195.999z"/>
	</g>
</g>
<g>
	<g>
		<path d="M315.999,0h-48c-4.412,0-8,3.588-8,8v80c0,4.412,3.588,8,8,8h48c4.412,0,8-3.588,8-8V8C323.999,3.588,320.411,0,315.999,0    z M267.999,88V8h48l0.004,80H267.999z"/>
	</g>
</g>
<g>
	<g>
		<path d="M387.999,0h-48c-4.412,0-8,3.588-8,8v80c0,4.412,3.588,8,8,8h48c4.412,0,8-3.588,8-8V8C395.999,3.588,392.411,0,387.999,0    z M339.999,88V8h48l0.004,80H339.999z"/>
	</g>
</g>
<g>
	<g>
		<path d="M159.999,120h-24c-2.208,0-4,1.792-4,4s1.792,4,4,4h20v20c0,2.208,1.792,4,4,4c2.208,0,4-1.792,4-4v-24    C163.999,121.792,162.207,120,159.999,120z"/>
	</g>
</g>
<g>
	<g>
		<path d="M231.999,120h-24c-2.208,0-4,1.792-4,4s1.792,4,4,4h20v20c0,2.208,1.792,4,4,4c2.208,0,4-1.792,4-4v-24    C235.999,121.792,234.207,120,231.999,120z"/>
	</g>
</g>
<g>
	<g>
		<path d="M303.999,120h-24c-2.208,0-4,1.792-4,4s1.792,4,4,4h20v20c0,2.208,1.792,4,4,4s4-1.792,4-4v-24    C307.999,121.792,306.207,120,303.999,120z"/>
	</g>
</g>
<g>
	<g>
		<path d="M375.999,120h-24c-2.208,0-4,1.792-4,4s1.792,4,4,4h20v20c0,2.208,1.792,4,4,4s4-1.792,4-4v-24    C379.999,121.792,378.207,120,375.999,120z"/>
	</g>
</g>
<g>
	<g>
		<path d="M159.999,16h-24c-2.208,0-4,1.792-4,4s1.792,4,4,4h20v48h-16V44c0-2.208-1.792-4-4-4c-2.208,0-4,1.792-4,4v32    c0,2.208,1.792,4,4,4h24c2.208,0,4-1.792,4-4V20C163.999,17.792,162.207,16,159.999,16z"/>
	</g>
</g>
<g>
	<g>
		<path d="M231.999,16h-24c-2.208,0-4,1.792-4,4s1.792,4,4,4h20v48h-16V44c0-2.208-1.792-4-4-4c-2.208,0-4,1.792-4,4v32    c0,2.208,1.792,4,4,4h24c2.208,0,4-1.792,4-4V20C235.999,17.792,234.207,16,231.999,16z"/>
	</g>
</g>
<g>
	<g>
		<path d="M303.999,16h-24c-2.208,0-4,1.792-4,4s1.792,4,4,4h20v48h-16V44c0-2.208-1.792-4-4-4s-4,1.792-4,4v32c0,2.208,1.792,4,4,4    h24c2.208,0,4-1.792,4-4V20C307.999,17.792,306.207,16,303.999,16z"/>
	</g>
</g>
<g>
	<g>
		<path d="M375.999,16h-24c-2.208,0-4,1.792-4,4s1.792,4,4,4h20v48h-16V44c0-2.208-1.792-4-4-4s-4,1.792-4,4v32c0,2.208,1.792,4,4,4    h24c2.208,0,4-1.792,4-4V20C379.999,17.792,378.207,16,375.999,16z"/>
	</g>
</g>
<g>
	<g>
		<path d="M391.999,144h-272c-2.208,0-4,1.792-4,4v360c0,2.208,1.792,4,4,4h272c2.208,0,4-1.792,4-4V148    C395.999,145.792,394.207,144,391.999,144z M387.999,504h-264V152h264V504z"/>
	</g>
</g>
<g>
	<g>
		<path d="M395.863,182.82c-0.792-2.064-3.108-3.092-5.168-2.3l-18.52,7.112l-30.416-15.444c-1.272-0.64-2.796-0.56-3.996,0.216    l-77.704,50.668L121.851,144.28c-1.92-1.096-4.364-0.424-5.456,1.496c-1.092,1.92-0.424,4.364,1.496,5.456l140.328,80    c0.616,0.352,1.3,0.524,1.98,0.524c0.76,0,1.52-0.216,2.184-0.648l77.816-50.74l29.94,15.204c1.004,0.516,2.184,0.576,3.244,0.168    l20.18-7.752C395.623,187.196,396.655,184.884,395.863,182.82z"/>
	</g>
</g>
<g>
	<g>
		<path d="M359.999,184c-2.208,0-4,1.792-4,4v284h-200V236c0-2.208-1.792-4-4-4c-2.208,0-4,1.792-4,4v240c0,2.208,1.792,4,4,4h208    c2.208,0,4-1.792,4-4V188C363.999,185.792,362.207,184,359.999,184z"/>
	</g>
</g>
<g>
	<g>
		<path d="M151.999,164c-2.208,0-4,1.792-4,4v32c0,2.208,1.792,4,4,4c2.208,0,4-1.792,4-4v-32    C155.999,165.792,154.207,164,151.999,164z"/>
	</g>
</g>
<g>
</g>
<g>
</g>
<g>
</g>
<g>
</g>
<g>
</g>
<g>
</g>
<g>
</g>
<g>
</g>
<g>
</g>
<g>
</g>
<g>
</g>
<g>
</g>
<g>
</g>
<g>
</g>
<g>
</g>
</svg>
